<?xml version="1.0" encoding="UTF-8"?>
<svg id="Layer_2" xmlns="http://www.w3.org/2000/svg" version="1.1" viewBox="0 0 693 679.4">
  <!-- Generator: Adobe Illustrator 29.4.0, SVG Export Plug-In . SVG Version: 2.1.0 Build 152)  -->
  <defs>
    <style>
      .st0 {
        fill: none;
        stroke: #fff;
        stroke-miterlimit: 10;
        stroke-width: 42px;
      }
    </style>
  </defs>
  <g id="Layer_1-2">
    <path class="st0" d="M666.2,279.5h-70c-3.2,0-5.8,2.3-5.8,5.2v342.7c0,2.9-2.6,5.2-5.8,5.2H108.3c-3.2,0-5.8-2.3-5.8-5.2v-342.7c0-2.9-2.6-5.2-5.8-5.2H26.8c-5.3,0-7.8-5.9-3.8-9.1L333.5,25.5c7.5-5.9,18.4-5.9,25.9,0l137.5,108.5c3.7,2.9,9.6.6,9.6-3.9v-55.4c0-2.9,2.6-5.3,5.8-5.3h72.4c3.2,0,5.8,2.3,5.8,5.2v130.7c0,1.5.7,2.9,2,3.9l77.6,61.2c4,3.2,1.5,9.1-3.8,9.1h0Z"/>
  </g>
</svg>